{
    "packets": [
        {
            "codec_type": "video",
            "stream_index": 0,
            "pts": 0,
            "pts_time": "0.000000",
            "dts": 0,
            "dts_time": "0.000000",
            "duration": 90000,
            "duration_time": "1.000000",
            "size": "821",
            "pos": "812",
            "flags": "K"
        },
        {
            "codec_type": "video",
            "stream_index": 0,
            "pts": 90000,
            "pts_time": "1.000000",
            "dts": 90000,
            "dts_time": "1.000000",
            "duration": 90000,
            "duration_time": "1.000000",
            "size": "282",
            "pos": "1633",
            "flags": "K"
        },
        {
            "codec_type": "video",
            "stream_index": 0,
            "pts": 180000,
            "pts_time": "2.000000",
            "dts": 180000,
            "dts_time": "2.000000",
            "duration": 90000,
            "duration_time": "1.000000",
            "size": "282",
            "pos": "1915",
            "flags": "K"
        },
        {
            "codec_type": "video",
            "stream_index": 0,
            "pts": 270000,
            "pts_time": "3.000000",
            "dts": 270000,
            "dts_time": "3.000000",
            "duration": 90000,
            "duration_time": "1.000000",
            "size": "282",
            "pos": "2197",
            "flags": "K"
        },
        {
            "codec_type": "video",
            "stream_index": 0,
            "pts": 360000,
            "pts_time": "4.000000",
            "dts": 360000,
            "dts_time": "4.000000",
            "duration": 90000,
            "duration_time": "1.000000",
            "size": "282",
            "pos": "2479",
            "flags": "K"
        }
    ]
}
